<svg xmlns="http://www.w3.org/2000/svg" viewBox="0 0 180 140" role="img" aria-labelledby="title desc">
  <title id="title">Settling point</title>
  <desc id="desc">A mineral-green point slowly pulls three viscous geological layers into a deepening fossil-like depression.</desc>
  <style>
    .frame { opacity: 0; }
    .frame-1 { animation: frame-1 3.6s step-end infinite; }
    .frame-2 { animation: frame-2 3.6s step-end infinite; }
    .frame-3 { animation: frame-3 3.6s step-end infinite; }
    .frame-4 { animation: frame-4 3.6s step-end infinite; }
    .frame-5 { animation: frame-5 3.6s step-end infinite; }
    .frame-6 { animation: frame-6 3.6s step-end infinite; }
    @keyframes frame-1 { 0%, 12.49% { opacity: 1; } 12.5%, 100% { opacity: 0; } }
    @keyframes frame-2 { 0%, 12.49% { opacity: 0; } 12.5%, 24.99% { opacity: 1; } 25%, 100% { opacity: 0; } }
    @keyframes frame-3 { 0%, 24.99% { opacity: 0; } 25%, 37.49% { opacity: 1; } 37.5%, 100% { opacity: 0; } }
    @keyframes frame-4 { 0%, 37.49% { opacity: 0; } 37.5%, 49.99% { opacity: 1; } 50%, 100% { opacity: 0; } }
    @keyframes frame-5 { 0%, 49.99% { opacity: 0; } 50%, 62.49% { opacity: 1; } 62.5%, 100% { opacity: 0; } }
    @keyframes frame-6 { 0%, 62.49% { opacity: 0; } 62.5%, 100% { opacity: 1; } }
    @media (prefers-reduced-motion: reduce) {
      .frame { animation: none !important; opacity: 0; }
      .frame-6 { opacity: 1; }
    }
  </style>
  <g class="frame frame-1">
    <g fill="none" stroke-linecap="round" stroke-width="5"><path stroke="#A8A69F" d="M24 46c25-1 44 1 65 0 21-1 43-2 67 0"/><path stroke="#858A83" d="M20 76c26 1 48-2 70-1 22 2 44 1 70-1"/><path stroke="#6E736D" d="M25 106c23-1 44 0 66-1 23-1 46 0 66 1"/></g>
    <circle cx="90" cy="18" r="6" fill="#5F7D72"/>
  </g>
  <g class="frame frame-2">
    <g fill="none" stroke-linecap="round" stroke-width="5"><path stroke="#A8A69F" d="M24 46c27-1 46-2 56 1 6 2 7 9 10 11 4-3 5-9 12-11 14-4 34-3 54-1"/><path stroke="#858A83" d="M20 76c26 1 48-2 70-1 22 2 44 1 70-1"/><path stroke="#6E736D" d="M25 106c23-1 44 0 66-1 23-1 46 0 66 1"/></g>
    <circle cx="90" cy="39" r="6" fill="#5F7D72"/>
  </g>
  <g class="frame frame-3">
    <g fill="none" stroke-linecap="round" stroke-width="5"><path stroke="#A8A69F" d="M24 46c24-2 44-2 54 3 6 4 6 16 12 19 6-4 8-15 16-19 13-6 33-5 50-3"/><path stroke="#858A83" d="M20 76c26 0 47-3 60 0 6 2 7 7 10 9 4-2 6-7 12-9 14-3 34-1 58-2"/><path stroke="#6E736D" d="M25 106c23-1 44 0 66-1 23-1 46 0 66 1"/></g>
    <circle cx="90" cy="59" r="6" fill="#5F7D72"/>
  </g>
  <g class="frame frame-4">
    <g fill="none" stroke-linecap="round" stroke-width="5"><path stroke="#A8A69F" d="M24 46c24-2 43-1 54 4 6 4 7 15 12 16 6-2 8-12 16-16 15-6 34-5 50-4"/><path stroke="#858A83" d="M20 76c25-1 46-3 58 2 6 4 6 13 12 16 6-3 8-12 16-16 14-5 32-4 54-4"/><path stroke="#6E736D" d="M25 106c25-1 44-3 55 0 6 2 7 6 10 8 4-2 6-6 12-8 14-3 36-2 55 0"/></g>
    <circle cx="90" cy="82" r="6" fill="#5F7D72"/>
  </g>
  <g class="frame frame-5">
    <g fill="none" stroke-linecap="round" stroke-width="5"><path stroke="#A8A69F" d="M24 46c24-2 43-1 54 4 6 4 7 13 12 14 6-2 8-10 16-14 15-6 34-5 50-4"/><path stroke="#858A83" d="M20 76c25-1 46-3 58 2 6 4 6 12 12 15 6-3 8-11 16-15 14-5 32-4 54-4"/><path stroke="#6E736D" d="M25 106c24-2 43-3 53 2 6 4 6 14 12 18 6-3 8-14 16-18 14-6 33-4 51-2"/></g>
    <circle cx="90" cy="104" r="6" fill="#5F7D72"/>
  </g>
  <g class="frame frame-6">
    <g fill="none" stroke-linecap="round" stroke-width="5"><path stroke="#A8A69F" d="M24 46c24-2 43-1 54 4 6 4 7 13 12 14 6-2 8-10 16-14 15-6 34-5 50-4"/><path stroke="#858A83" d="M20 76c25-1 46-3 58 2 6 4 6 12 12 15 6-3 8-11 16-15 14-5 32-4 54-4"/><path stroke="#6E736D" d="M25 106c24-2 42-2 52 3 7 5 7 19 13 23 7-4 8-18 17-23 14-6 32-5 50-3"/></g>
    <circle cx="90" cy="121" r="6" fill="#5F7D72"/>
  </g>
</svg>
