<svg xmlns="http://www.w3.org/2000/svg" viewBox="0 0 1024 1024" role="img" aria-labelledby="title desc">
  <title id="title">Shale application icon</title>
  <desc id="desc">A deep shale rounded square containing an asymmetric open book made from geological layers.</desc>

  <rect x="32" y="32" width="960" height="960" rx="224" fill="#253034"/>

  <g transform="translate(112 330) scale(2.5)">
    <path fill="#F1EDE4" d="M12 18c31 5 58 9 82 18 31 6 52 17 63 37 2 4 3 9 3 14-13-15-31-23-54-28-31-6-63-9-96-13z"/>
    <path fill="#F1EDE4" d="M162 80c15-20 39-31 68-39 25-7 52-13 79-16l2 21c-30 3-58 8-83 15-28 8-50 18-66 29z"/>

    <path fill="#A7AAA6" d="M11 55c37 3 71 7 103 14 22 5 37 12 45 23l-3 7c-15-11-34-16-58-20-29-5-59-7-88-9z"/>
    <path fill="#A7AAA6" d="M164 91c18-13 43-21 73-25 26-4 51-5 77-4l-3 18c-28-1-54 0-78 3-27 4-50 9-68 16z"/>

    <path fill="#5F7D72" d="M8 77c35 1 70 4 103 9 22 3 38 9 48 17l-5 8c-17-8-38-11-62-13-30-3-59-3-87-4z"/>
    <path fill="#D3D0C8" d="M165 100c18-8 42-12 71-13 27-1 52 1 77 5l-3 17c-28-4-54-5-78-3-26 1-49 4-66 9z"/>

    <path fill="#C1BEB6" d="M23 104c27-1 55 0 83 2 22 2 39 5 50 10l-4 7c-18-3-38-4-60-4-24 0-47 1-70 2z"/>
    <path fill="#C1BEB6" d="M166 115c21-4 44-5 69-5 26 0 49 2 71 6l-2 9c-25-2-49-3-72-2-24 0-46 2-66 5z"/>
  </g>
</svg>
